#!OML:ASF F:\VICON\USERDATA\INSTALL\rory3\rory3.ASF
:FULLY-SPECIFIED
:DEGREES
657
root 0.571824 17.3775 -0.328329 -1.77588 -70.2936 5.50269
lowerback 4.93461 0.160366 0.299958
upperback 5.00082 0.134483 -0.796617
thorax 2.38187 0.0483369 -0.992383
lowerneck -24.7602 2.81863 1.30227
upperneck -25.235 2.65103 8.19143
head -4.16676 0.227872 2.61816
rclavicle 1.58779e-014 -1.75924e-014
rhumerus -26.7835 12.4818 -92.2698
rradius 40.3065
rwrist 15.2047
rhand -18.5697 7.67617
rfingers 7.12502
rthumb 7.72049 -22.1629
lclavicle 1.58779e-014 -1.75924e-014
lhumerus -34.0545 -0.103154 79.5291
lradius 42.182
lwrist -6.46292
lhand -7.19005 21.351
lfingers 7.12502
lthumb 18.688 50.4733
rfemur -12.051 -4.11508 15.3161
rtibia 42.7251
rfoot -27.194 -2.22047
rtoes -1.90477
lfemur -23.2905 7.6861 -27.8872
ltibia 43.825
lfoot -16.0879 8.69632
ltoes -1.44847
658
root 0.539227 17.3495 -0.336974 -1.72692 -70.0409 5.42396
lowerback 5.09851 0.394388 -0.0749761
upperback 4.89277 0.43132 -0.335966
thorax 2.17707 0.178745 -0.318019
lowerneck -24.3373 2.31749 0.29507
upperneck -25.5466 2.28002 8.24679
head -4.30378 0.124657 2.79083
rclavicle 5.66536e-015 -1.07344e-014
rhumerus -27.1901 13.043 -91.3755
rradius 40.9179
rwrist 14.7338
rhand -18.6586 7.92577
rfingers 7.12502
rthumb 7.63465 -21.9164
lclavicle 5.66536e-015 -1.07344e-014
lhumerus -34.3026 -0.872276 80.567
lradius 42.581
lwrist -6.29721
lhand -7.68753 21.3027
lfingers 7.12502
lthumb 18.2095 50.4704
rfemur -12.6729 -4.4331 15.2984
rtibia 44.3219
rfoot -27.0605 -1.55272
rtoes -1.39157
lfemur -22.6605 6.90603 -27.6836
ltibia 43.0884
lfoot -16.6703 8.53137
ltoes -4.04486
659
root 0.508885 17.326 -0.340708 -1.8071 -69.7404 5.54377
lowerback 5.22679 0.580282 -0.404387
upperback 4.75821 0.666643 0.0536869
thorax 1.95893 0.282781 0.257664
lowerneck -23.9563 1.88141 -0.52909
upperneck -25.7238 1.92141 8.17989
head -4.39119 0.0229583 2.89342
rclavicle 9.64106e-015 9.14409e-015
rhumerus -27.6032 13.3506 -90.5152
rradius 41.5206
rwrist 14.4814
rhand -18.8238 8.57933
rfingers 7.12502
rthumb 7.47522 -21.2686
lclavicle 9.64106e-015 9.14409e-015
lhumerus -34.5876 -1.55888 81.5334
lradius 42.9593
lwrist -6.15975
lhand -7.98214 21.0394
lfingers 7.12502
lthumb 17.926 50.2333
rfemur -13.494 -5.06756 15.1665
rtibia 46.1097
rfoot -26.5519 -1.17966
rtoes -3.05178
lfemur -22.1247 6.15698 -27.5113
ltibia 42.3573
lfoot -17.1108 8.57193
ltoes -6.53931
660
root 0.483056 17.3002 -0.348322 -1.96228 -69.453 5.71852
lowerback 5.45117 0.776428 -0.745471
upperback 4.6223 0.913692 0.403574
thorax 1.68104 0.394521 0.795692
lowerneck -23.6232 1.41375 -1.51519
upperneck -25.8341 1.57277 8.33668
head -4.44907 -0.0601635 3.09919
rclavicle -7.05686e-015 -5.56597e-015
rhumerus -27.9239 13.2748 -89.683
rradius 42.0453
rwrist 14.3243
rhand -18.9625 8.87202
rfingers 7.12502
rthumb 7.34135 -20.9806
lclavicle -7.05686e-015 -5.56597e-015
lhumerus -34.8144 -2.25339 82.4175
lradius 43.2841
lwrist -5.98279
lhand -7.95524 20.6341
lfingers 7.12502
lthumb 17.9519 49.8255
rfemur -14.389 -5.74678 14.9882
rtibia 48.0719
rfoot -25.8033 -0.554176
rtoes -4.01998
lfemur -21.5826 5.46088 -27.2832
ltibia 41.6448
lfoot -17.4647 8.66809
ltoes -7.66965
661
root 0.45946 17.2653 -0.362097 -1.92825 -69.2432 5.75937
lowerback 5.64603 1.03619 -1.09781
upperback 4.48091 1.24452 0.748028
thorax 1.40597 0.549947 1.32899
lowerneck -23.2753 0.911956 -2.47595
upperneck -26.0578 1.16587 8.51126
head -4.54099 -0.179817 3.30892
rclavicle 2.21645e-014 1.19271e-015
rhumerus -28.1558 13.1883 -88.8894
rradius 42.5389
rwrist 13.8745
rhand -19.1539 8.2959
rfingers 7.12502
rthumb 7.15658 -21.5631
lclavicle 2.21645e-014 1.19271e-015
lhumerus -34.9136 -3.20688 83.3526
lradius 43.5531
lwrist -5.71767
lhand -8.26595 20.5102
lfingers 7.12502
lthumb 17.6529 49.7289
rfemur -15.478 -6.2061 14.8729
rtibia 50.1667
rfoot -24.8773 0.155935
rtoes -4.32872
lfemur -21.1422 4.78392 -26.9999
ltibia 41.0308
lfoot -17.7965 8.48823
ltoes -10.2438
662
root 0.43441 17.2362 -0.376658 -2.09649 -69.0023 6.04403
lowerback 5.81134 1.27651 -1.53971
upperback 4.33961 1.54561 1.06168
thorax 1.13997 0.690917 1.88031
lowerneck -23.0034 0.430653 -3.44285
upperneck -26.1682 0.776301 8.69422
head -4.58451 -0.284518 3.52292
rclavicle 1.49089e-014 -1.03368e-014
rhumerus -28.447 13.2792 -88.1637
rradius 43.1588
rwrist 12.9969
rhand -19.4039 8.26671
rfingers 7.12502
rthumb 6.91531 -21.6003
lclavicle 1.49089e-014 -1.03368e-014
lhumerus -35.0324 -4.12092 84.3144
lradius 43.8104
lwrist -5.61724
lhand -8.97798 20.551
lfingers 7.12502
lthumb 16.9676 49.8299
rfemur -16.644 -6.74171 14.6183
rtibia 52.3186
rfoot -23.7178 0.999962
rtoes -4.20176
lfemur -20.872 4.47208 -26.9048
ltibia 40.5761
lfoot -18.0686 7.96623
ltoes -13.6866
663
root 0.407306 17.2249 -0.3892 -2.68533 -68.6803 6.78048
lowerback 6.00137 1.48058 -2.09502
upperback 4.17804 1.79259 1.31257
thorax 0.833875 0.806556 2.43078
lowerneck -22.7737 0.0300176 -4.29824
upperneck -26.17 0.446097 8.74686
head -4.59067 -0.361493 3.67492
rclavicle 7.45443e-014 -1.51076e-014
rhumerus -28.8507 13.5183 -87.463
rradius 43.9137
rwrist 11.8703
rhand -19.4924 8.74211
rfingers 7.12502
rthumb 6.82988 -21.1277
lclavicle 7.45443e-014 -1.51076e-014
lhumerus -35.19 -4.86714 85.196
lradius 44.1078
lwrist -5.60324
lhand -9.72734 20.5753
lfingers 7.12502
lthumb 16.2462 49.9146
rfemur -17.8062 -7.35061 14.1537
rtibia 54.4614
rfoot -22.2466 1.54079
rtoes -5.13616
lfemur -20.7518 4.81725 -27.1694
ltibia 40.2922
lfoot -18.2424 7.42399
ltoes -14.8999
664
root 0.378065 17.2284 -0.402084 -3.17538 -68.2878 7.40033
lowerback 6.26706 1.60978 -2.57924
upperback 3.97699 1.93991 1.56259
thorax 0.448039 0.878388 2.94239
lowerneck -22.3927 -0.359954 -5.26307
upperneck -26.3306 0.152453 8.89273
head -4.66733 -0.422296 3.88282
rclavicle 6.2816e-014 -3.97569e-015
rhumerus -29.239 13.6012 -86.8196
rradius 44.5707
rwrist 11.0429
rhand -19.6833 8.28647
rfingers 7.12502
rthumb 6.64557 -21.5893
lclavicle 6.2816e-014 -3.97569e-015
lhumerus -35.2835 -5.31436 85.927
lradius 44.2713
lwrist -5.63751
lhand -9.89655 20.344
lfingers 7.12502
lthumb 16.0833 49.6966
rfemur -18.9698 -7.84789 13.7188
rtibia 56.5562
rfoot -20.4822 1.86218
rtoes -5.9307
lfemur -20.7725 5.44858 -27.5028
ltibia 40.1783
lfoot -18.1655 7.07929
ltoes -14.6505
665
root 0.349756 17.2351 -0.417241 -3.34363 -67.8722 7.67222
lowerback 6.56375 1.70299 -2.95342
upperback 3.77492 2.04164 1.8523
thorax 0.0463859 0.931806 3.43495
lowerneck -21.9538 -0.725405 -6.23373
upperneck -26.5556 -0.117939 9.06647
head -4.77234 -0.47531 4.10528
rclavicle 5.70512e-014 1.03368e-014
rhumerus -29.5074 13.4492 -86.2042
rradius 45.1206
rwrist 10.459
rhand -19.9849 7.56357
rfingers 7.12502
rthumb 6.35437 -22.3211
lclavicle 5.70512e-014 1.03368e-014
lhumerus -35.344 -5.7343 86.6458
lradius 44.4002
lwrist -5.66423
lhand -9.71978 19.9916
lfingers 7.12502
lthumb 16.2535 49.3303
rfemur -20.174 -8.27794 13.3601
rtibia 58.6082
rfoot -18.4102 2.32803
rtoes -5.13208
lfemur -20.9219 5.92409 -27.6716
ltibia 40.1942
lfoot -18.0332 6.65646
ltoes -14.0479
666
root 0.323817 17.2356 -0.438059 -3.70731 -67.4243 8.17356
lowerback 6.85865 1.82359 -3.40353
upperback 3.6057 2.1728 2.05654
thorax -0.324699 1.00112 3.88042
lowerneck -21.5886 -1.0837 -6.93599
upperneck -26.7683 -0.458922 9.09272
head -4.86124 -0.580955 4.23094
rclavicle 2.3059e-014 4.77083e-015
rhumerus -29.6487 13.0899 -85.6422
rradius 45.6286
rwrist 9.93905
rhand -20.4191 7.59585
rfingers 7.12502
rthumb 5.93525 -22.301
lclavicle 2.3059e-014 4.77083e-015
lhumerus -35.2947 -6.23641 87.308
lradius 44.5147
lwrist -5.64034
lhand -10.0339 19.6669
lfingers 7.12502
lthumb 15.951 49.0301
rfemur -21.4517 -8.61921 12.8607
rtibia 60.6441
rfoot -16.3151 2.72651
rtoes -3.45702
lfemur -21.0807 6.19162 -27.8898
ltibia 40.2465
lfoot -18.0566 6.07272
ltoes -13.1222
667
root 0.29661 17.227 -0.461004 -4.17695 -66.9075 8.8936
lowerback 6.97602 1.94833 -3.83563
upperback 3.45516 2.31343 2.10657
thorax -0.57549 1.07641 4.15956
lowerneck -21.26 -1.48786 -7.5226
upperneck -26.9903 -0.883759 9.13889
head -4.94012 -0.737108 4.34186
rclavicle 4.17448e-015 3.4191e-014
rhumerus -29.7949 12.6651 -85.2711
rradius 46.1975
rwrist 9.19353
rhand -20.9245 7.96273
rfingers 7.12502
rthumb 5.44728 -21.9473
lclavicle 4.17448e-015 3.4191e-014
lhumerus -35.0876 -7.03454 87.7995
lradius 44.5263
lwrist -5.59715
lhand -10.8293 19.1992
lfingers 7.12502
lthumb 15.1849 48.6221
rfemur -22.8145 -9.0226 12.2574
rtibia 62.5983
rfoot -14.2498 2.94871
rtoes -2.37364
lfemur -21.2571 6.25969 -28.161
ltibia 40.3148
lfoot -18.3271 5.40018
ltoes -11.2856
